<?xml version="1.0" encoding="UTF-8"?>
<svg width="213px" height="243px" viewBox="0 0 213 243" version="1.1" xmlns="http://www.w3.org/2000/svg" xmlns:xlink="http://www.w3.org/1999/xlink">
    <!-- Generator: Sketch 45.2 (43514) - http://www.bohemiancoding.com/sketch -->
    <title>bell</title>
    <desc>Created with Sketch.</desc>
    <defs></defs>
    <g id="Shared" stroke="none" stroke-width="1" fill="none" fill-rule="evenodd">
        <g id="Artboard" transform="translate(-139.000000, -58.000000)" fill-rule="nonzero" fill="#535A59">
            <g id="bell" transform="translate(139.000000, 58.000000)">
                <path d="M205.554664,173.422239 C195.013617,162.881193 181.921875,149.762446 181.921875,98.5410156 C181.921875,60.9277205 154.524156,29.7191176 118.598376,23.7682825 C120.349241,21.2394754 121.285349,18.2359288 121.28125,15.1601562 C121.28125,6.78748621 114.493764,-3.55271368e-15 106.121094,-3.55271368e-15 C97.7484237,-3.55271368e-15 90.9609375,6.78748621 90.9609375,15.1601562 C90.9609375,18.3580017 91.953454,21.3227598 93.6438114,23.7682825 C57.7180311,29.7191176 30.3203125,60.9277205 30.3203125,98.5410156 C30.3203125,149.762446 17.2243063,162.881193 6.68326013,173.422239 C-7.59997583,187.705475 2.52274475,212.242187 22.7629746,212.242187 L75.8007812,212.242187 C75.8007812,228.987528 89.3757537,242.5625 106.121094,242.5625 C122.866434,242.5625 136.441406,228.987528 136.441406,212.242187 L189.474949,212.242187 C209.67491,212.242187 219.866799,187.734374 205.554664,173.422239 Z M106.121094,223.612305 C108.214275,223.612305 109.911133,225.309163 109.911133,227.402344 C109.911133,229.495525 108.214275,231.192383 106.121094,231.192383 C95.6719561,231.192383 87.1708984,222.691325 87.1708984,212.242188 L94.7509766,212.242188 C94.7509766,218.51186 99.8514216,223.612305 106.121094,223.612305 Z" id="Shape"></path>
            </g>
        </g>
    </g>
</svg>