<?xml version="1.0" encoding="UTF-8"?>
<svg width="197px" height="148px" viewBox="0 0 197 148" version="1.1" xmlns="http://www.w3.org/2000/svg" xmlns:xlink="http://www.w3.org/1999/xlink">
    <!-- Generator: Sketch 45.2 (43514) - http://www.bohemiancoding.com/sketch -->
    <title>chart</title>
    <desc>Created with Sketch.</desc>
    <defs></defs>
    <g id="Shared" stroke="none" stroke-width="1" fill="none" fill-rule="evenodd">
        <g id="Artboard" transform="translate(-159.000000, -72.000000)" fill-rule="nonzero" fill="#535A59">
            <g id="chart" transform="translate(159.000000, 72.000000)">
                <path d="M191.825867,122.768555 C194.357968,122.768555 196.429687,124.840274 196.429687,127.372375 L196.429687,142.718445 C196.429687,145.250546 194.357968,147.322266 191.825867,147.322266 L4.6038208,147.322266 C2.07171936,147.322266 0,145.250546 0,142.718445 L0,4.6038208 C0,2.07171936 2.07171936,0 4.6038208,0 L19.9498901,0 C22.4819916,0 24.5537109,2.07171936 24.5537109,4.6038208 L24.5537109,122.768555 L191.825867,122.768555 Z M73.6611328,105.887878 L73.6611328,78.2649536 C73.6611328,75.7328522 71.5894135,73.6611328 69.057312,73.6611328 L53.7112427,73.6611328 C51.1791412,73.6611328 49.1074219,75.7328522 49.1074219,78.2649536 L49.1074219,105.887878 C49.1074219,108.41998 51.1791412,110.491699 53.7112427,110.491699 L69.057312,110.491699 C71.5894135,110.491699 73.6611328,108.41998 73.6611328,105.887878 Z M147.322266,105.887878 L147.322266,53.7112427 C147.322266,51.1791412 145.250546,49.1074219 142.718445,49.1074219 L127.372375,49.1074219 C124.840274,49.1074219 122.768555,51.1791412 122.768555,53.7112427 L122.768555,105.887878 C122.768555,108.41998 124.840274,110.491699 127.372375,110.491699 L142.718445,110.491699 C145.250546,110.491699 147.322266,108.41998 147.322266,105.887878 Z M110.491699,105.887878 L110.491699,29.1575317 C110.491699,26.6254303 108.41998,24.5537109 105.887878,24.5537109 L90.5418091,24.5537109 C88.0097076,24.5537109 85.9379883,26.6254303 85.9379883,29.1575317 L85.9379883,105.887878 C85.9379883,108.41998 88.0097076,110.491699 90.5418091,110.491699 L105.887878,110.491699 C108.41998,110.491699 110.491699,108.41998 110.491699,105.887878 Z M184.152832,105.887878 L184.152832,16.8806763 C184.152832,14.3485748 182.081113,12.2768555 179.549011,12.2768555 L164.202942,12.2768555 C161.67084,12.2768555 159.599121,14.3485748 159.599121,16.8806763 L159.599121,105.887878 C159.599121,108.41998 161.67084,110.491699 164.202942,110.491699 L179.549011,110.491699 C182.081113,110.491699 184.152832,108.41998 184.152832,105.887878 Z" id="Shape"></path>
            </g>
        </g>
    </g>
</svg>