<?xml version="1.0" encoding="UTF-8"?>
<svg width="265px" height="205px" viewBox="0 0 265 205" version="1.1" xmlns="http://www.w3.org/2000/svg" xmlns:xlink="http://www.w3.org/1999/xlink">
    <!-- Generator: Sketch 45.2 (43514) - http://www.bohemiancoding.com/sketch -->
    <title>cloud</title>
    <desc>Created with Sketch.</desc>
    <defs></defs>
    <g id="Shared" stroke="none" stroke-width="1" fill="none" fill-rule="evenodd">
        <g id="Artboard" transform="translate(-54.000000, -49.000000)" fill-rule="nonzero" fill="#535A59">
            <g id="cloud" transform="translate(54.000000, 49.261719)">
                <path d="M222.604368,88.6632481 C224.318668,83.7761969 225.260705,78.4662454 225.260705,72.9138553 C225.260705,48.7524822 207.463039,29.1655421 185.508816,29.1655421 C177.339389,29.1655421 169.746778,31.878849 163.431611,36.5293858 C151.985551,14.6957875 130.555142,0 106.005038,0 C69.4142519,0 39.7518891,32.6444445 39.7518891,72.9138553 C39.7518891,74.1570366 39.7808749,75.3924707 39.8363619,76.6201577 C16.6340952,85.6031447 0,109.929941 0,138.536325 C0,174.778613 26.6962921,204.158795 59.6278337,204.158795 L212.010075,204.158795 C241.282373,204.158795 265.012594,178.042875 265.012594,145.827711 C265.012594,117.605492 246.800018,94.0652533 222.604368,88.6632481 Z" id="Shape"></path>
            </g>
        </g>
    </g>
</svg>