<?xml version="1.0" encoding="UTF-8"?>
<svg width="104px" height="99px" viewBox="0 0 104 99" version="1.1" xmlns="http://www.w3.org/2000/svg" xmlns:xlink="http://www.w3.org/1999/xlink">
    <!-- Generator: Sketch 45.2 (43514) - http://www.bohemiancoding.com/sketch -->
    <title>cockpit</title>
    <desc>Created with Sketch.</desc>
    <defs></defs>
    <g id="Shared" stroke="none" stroke-width="1" fill="none" fill-rule="evenodd">
        <g id="Artboard" transform="translate(-44.000000, -32.000000)" fill-rule="nonzero">
            <g id="cockpit" transform="translate(44.000000, 32.000000)">
                <g id="gauge" fill="#4D4D4D">
                    <path d="M0.513322559,49.6179697 C0.513322559,76.7070885 23.5396037,98.7446721 51.8448939,98.7446721 C80.150869,98.7446721 103.177834,76.7070885 103.177834,49.6179697 C103.177834,22.5295058 80.150869,0.491267025 51.8448939,0.491267025 C23.5396037,0.491267025 0.513322559,22.5295058 0.513322559,49.6179697 L0.513322559,49.6179697 Z M9.0673297,49.6179697 C9.0673297,27.0426122 28.2566958,8.67774076 51.8448939,8.67774076 C75.4337768,8.67774076 94.6231427,27.0426122 94.6231427,49.6179697 C94.6231427,72.1933267 75.4337768,90.5581985 51.8448939,90.5581985 C28.2566958,90.5581985 9.0673297,72.1933267 9.0673297,49.6179697 L9.0673297,49.6179697 Z M49.0606325,15.4840816 L49.0606325,26.8801666 C49.9852975,26.7792931 50.9181757,26.7242712 51.8407873,26.7242712 C52.7654524,26.7242712 53.6976464,26.7792931 54.616836,26.8801666 L54.616836,15.4840816 C53.6798513,15.4139942 52.7469731,15.3766579 51.8407873,15.3766579 C50.9332332,15.3766579 49.9983017,15.4139942 49.0606325,15.4840816 L49.0606325,15.4840816 Z M58.7507937,27.6963249 C60.5330493,28.2072426 62.2571288,28.9199073 63.8840194,29.8218735 L68.2630029,19.2864884 C66.6094199,18.4454392 64.8839715,17.7327745 63.1290926,17.1622498 L58.7507937,27.6963249 L58.7507937,27.6963249 Z M35.2857927,19.3526457 L39.7092643,29.863795 C41.3306792,28.9592086 43.0499676,28.2426138 44.8349612,27.7244909 L40.4114896,17.2061363 C38.6566109,17.7891065 36.9373225,18.5083215 35.2857927,19.3526457 L35.2857927,19.3526457 Z M67.3787189,32.145239 C68.8290265,33.3039742 70.1458698,34.6192598 71.3052945,36.0622748 L79.3884137,28.0068056 C78.1838167,26.6063671 76.8656045,25.2878064 75.4638916,24.0871498 L67.3787189,32.145239 L67.3787189,32.145239 Z M24.2917924,28.0068056 L32.3728583,36.0622748 C33.5329673,34.6140196 34.8546018,33.3039742 36.3055935,32.145239 L28.2197366,24.0871498 C26.8166549,25.2923916 25.4950204,26.6063671 24.2917924,28.0068056 L24.2917924,28.0068056 Z M73.451667,39.2070388 C74.3811234,40.8170846 75.1209922,42.5227637 75.6644299,44.29329 L86.1560584,39.7644631 C85.5523911,38.0155525 84.8132064,36.3105284 83.9487715,34.6795219 L73.451667,39.2070388 L73.451667,39.2070388 Z M17.3420893,40.3002717 L27.906952,44.6692731 C28.4250656,42.8869563 29.1396106,41.1714518 30.0368984,39.5509257 L19.4720357,35.1812692 C18.6301867,36.8319265 17.9156418,38.5520161 17.3420893,40.3002717 L17.3420893,40.3002717 Z" id="path-1"></path>
                </g>
                <path d="M46.9984447,53.5887172 C43.9150872,55.2223437 41.8221,58.3697281 41.8221,61.9854533 C41.8221,67.283277 46.3105924,71.5776055 51.8448939,71.5776055 C57.3791956,71.5776055 61.8683724,67.283277 61.8683724,61.9828332 C61.8683724,58.367108 59.7815454,55.2177588 56.6927122,53.5834771 L51.8448939,31.8517889 L46.9984447,53.5887172 L46.9984447,53.5887172 Z" id="pointer" fill="#F01889"></path>
            </g>
        </g>
    </g>
</svg>