<?xml version="1.0" encoding="UTF-8"?>
<svg width="269px" height="215px" viewBox="0 0 269 215" version="1.1" xmlns="http://www.w3.org/2000/svg" xmlns:xlink="http://www.w3.org/1999/xlink">
    <!-- Generator: Sketch 45.2 (43514) - http://www.bohemiancoding.com/sketch -->
    <title>home</title>
    <desc>Created with Sketch.</desc>
    <defs></defs>
    <g id="Shared" stroke="none" stroke-width="1" fill="none" fill-rule="evenodd">
        <g id="Artboard" transform="translate(-15.000000, -16.000000)" fill-rule="nonzero" fill="#535A59">
            <g id="home" transform="translate(15.000000, 16.000000)">
                <path d="M227.608236,134.164265 L227.608236,202.656389 C227.608236,209.0133 222.617645,214.127506 216.414388,214.127506 L162.310791,214.127506 C159.232483,214.127506 156.713867,211.546504 156.713867,208.391947 L156.713867,154.860071 C156.713867,151.705514 154.195251,149.124513 151.116943,149.124513 L117.5354,149.124513 C114.457092,149.124513 111.938477,151.705514 111.938477,154.860071 L111.938477,208.391947 C111.938477,211.546504 109.419861,214.127506 106.341553,214.127506 L52.2379557,214.127506 C46.0346985,214.127506 41.0441081,209.0133 41.0441081,202.656389 L41.0441081,134.164265 C41.0441081,132.443598 41.7903646,130.818523 43.0963135,129.719208 L130.781453,55.730507 C132.833659,54.0098396 135.818685,54.0098396 137.917531,55.730507 L225.602671,129.719208 C226.861979,130.818523 227.608236,132.443598 227.608236,134.164265 Z M266.600138,105.056307 L227.608236,72.1246442 L227.608236,5.92674346 C227.608236,2.77218646 225.08962,0.191185273 222.011312,0.191185273 L195.892334,0.191185273 C192.814026,0.191185273 190.29541,2.77218646 190.29541,5.92674346 L190.29541,40.6268705 L148.551687,5.40098396 C140.296224,-1.5772785 128.35612,-1.5772785 120.100657,5.40098396 L2.0522054,105.056307 C-0.326487223,107.063753 -0.652974447,110.696273 1.30594889,113.133885 L13.199412,127.950744 C15.1583354,130.388356 18.7030538,130.72293 21.0817464,128.715485 L130.781453,36.1340166 C132.833659,34.4133491 135.818685,34.4133491 137.917531,36.1340166 L247.617238,128.715485 C249.995931,130.72293 253.540649,130.388356 255.499573,127.950744 L267.393036,113.133885 C269.351959,110.648477 268.978831,107.063753 266.600138,105.056307 L266.600138,105.056307 Z" id="Shape"></path>
            </g>
        </g>
    </g>
</svg>