<?xml version="1.0" encoding="UTF-8"?>
<svg width="244px" height="190px" viewBox="0 0 244 190" version="1.1" xmlns="http://www.w3.org/2000/svg" xmlns:xlink="http://www.w3.org/1999/xlink">
    <!-- Generator: Sketch 45.2 (43514) - http://www.bohemiancoding.com/sketch -->
    <title>sliders</title>
    <desc>Created with Sketch.</desc>
    <defs></defs>
    <g id="Shared" stroke="none" stroke-width="1" fill="none" fill-rule="evenodd">
        <g id="Artboard" transform="translate(-95.000000, -69.000000)" fill-rule="nonzero" fill="#535A59">
            <g id="sliders" transform="translate(95.941406, 69.865002)">
                <path d="M242.498986,18.5242281 L242.498986,35.3644354 C242.498986,38.1430696 240.225558,40.4164976 237.446923,40.4164976 L67.3608293,40.4164976 L67.3608293,43.7845391 C67.3608293,49.383908 62.8560739,53.8886635 57.2567049,53.8886635 L50.520622,53.8886635 C44.9212531,53.8886635 40.4164976,49.383908 40.4164976,43.7845391 L40.4164976,40.4164976 L5.0520622,40.4164976 C2.27342799,40.4164976 0,38.1430696 0,35.3644354 L0,18.5242281 C0,15.7455939 2.27342799,13.4721659 5.0520622,13.4721659 L40.4164976,13.4721659 L40.4164976,10.1041244 C40.4164976,4.50475546 44.9212531,0 50.520622,0 L57.2567049,0 C62.8560739,0 67.3608293,4.50475546 67.3608293,10.1041244 L67.3608293,13.4721659 L237.446923,13.4721659 C240.225558,13.4721659 242.498986,15.7455939 242.498986,18.5242281 Z M237.446923,80.8329952 L202.082488,80.8329952 L202.082488,77.4649537 C202.082488,71.8655848 197.577732,67.3608293 191.978364,67.3608293 L185.242281,67.3608293 C179.642912,67.3608293 175.138156,71.8655848 175.138156,77.4649537 L175.138156,80.8329952 L5.0520622,80.8329952 C2.27342799,80.8329952 0,83.1064232 0,85.8850574 L0,102.725265 C0,105.503899 2.27342799,107.777327 5.0520622,107.777327 L175.138156,107.777327 L175.138156,111.145368 C175.138156,116.744737 179.642912,121.249493 185.242281,121.249493 L191.978364,121.249493 C197.577732,121.249493 202.082488,116.744737 202.082488,111.145368 L202.082488,107.777327 L237.446923,107.777327 C240.225558,107.777327 242.498986,105.503899 242.498986,102.725265 L242.498986,85.8850574 C242.498986,83.1064232 240.225558,80.8329952 237.446923,80.8329952 Z M237.446923,148.193824 L121.249493,148.193824 L121.249493,144.825783 C121.249493,139.226414 116.744737,134.721659 111.145368,134.721659 L104.409285,134.721659 C98.8099165,134.721659 94.305161,139.226414 94.305161,144.825783 L94.305161,148.193824 L5.0520622,148.193824 C2.27342799,148.193824 0,150.467252 0,153.245887 L0,170.086094 C0,172.864728 2.27342799,175.138156 5.0520622,175.138156 L94.305161,175.138156 L94.305161,178.506198 C94.305161,184.105567 98.8099165,188.610322 104.409285,188.610322 L111.145368,188.610322 C116.744737,188.610322 121.249493,184.105567 121.249493,178.506198 L121.249493,175.138156 L237.446923,175.138156 C240.225558,175.138156 242.498986,172.864728 242.498986,170.086094 L242.498986,153.245887 C242.498986,150.467252 240.225558,148.193824 237.446923,148.193824 Z" id="Shape"></path>
            </g>
        </g>
    </g>
</svg>