<?xml version="1.0" encoding="UTF-8"?>
<svg width="294px" height="214px" viewBox="0 0 294 214" version="1.1" xmlns="http://www.w3.org/2000/svg" xmlns:xlink="http://www.w3.org/1999/xlink">
    <!-- Generator: Sketch 45.2 (43514) - http://www.bohemiancoding.com/sketch -->
    <title>Shape</title>
    <desc>Created with Sketch.</desc>
    <defs></defs>
    <g id="Shared" stroke="none" stroke-width="1" fill="none" fill-rule="evenodd">
        <g id="Artboard" transform="translate(-108.000000, -111.000000)" fill-rule="nonzero" fill="#FFFFFF">
            <g id="comments" transform="translate(108.394531, 111.359375)">
                <path d="M114.179905,155.870388 C95.0145017,155.870388 76.9557264,152.645273 61.0949144,146.952799 C45.1020817,158.659638 25.480469,165.793232 4.6349905,167.838078 C4.48428351,167.852852 4.33286133,167.860333 4.18132927,167.860491 C2.27697158,167.860491 0.556627035,166.669254 0.0948100993,164.970143 C-0.404726983,163.081236 1.15912992,161.918611 2.70769488,160.532808 C10.3623361,153.64719 19.642002,148.234166 23.2712918,125.102323 C8.67308516,112.011589 0,95.6718961 0,77.9354324 C0,34.8882771 51.124562,0 114.179905,0 C177.235247,0 228.359809,34.8878002 228.359809,77.9354324 C228.359299,121.012631 177.235247,155.870388 114.179905,155.870388 Z M291.090962,206.979139 C283.983263,200.719182 275.366248,195.798295 271.996412,174.769476 C307.070032,143.978521 298.589625,99.9308792 252.792779,76.0250655 C252.808581,76.6612186 252.826422,77.2968949 252.826422,77.9354324 C252.826422,136.349453 186.773857,181.128623 107.934162,178.662218 C127.365645,193.426788 155.843336,202.740661 187.580762,202.740661 C205.377535,202.740661 222.146179,199.808825 236.873858,194.633763 C251.724382,205.276213 269.944232,211.761255 289.301294,213.620119 C291.231138,213.808485 293.054449,212.679242 293.516775,211.013036 C293.981141,209.295804 292.528915,208.239046 291.090962,206.979139 L291.090962,206.979139 Z" id="Shape"></path>
            </g>
        </g>
    </g>
</svg>