<?xml version="1.0" encoding="UTF-8"?>
<svg width="216px" height="192px" viewBox="0 0 216 192" version="1.1" xmlns="http://www.w3.org/2000/svg" xmlns:xlink="http://www.w3.org/1999/xlink">
    <!-- Generator: Sketch 45.2 (43514) - http://www.bohemiancoding.com/sketch -->
    <title>exclamation-triangle</title>
    <desc>Created with Sketch.</desc>
    <defs></defs>
    <g id="Shared" stroke="none" stroke-width="1" fill="none" fill-rule="evenodd">
        <g id="Artboard" transform="translate(-65.000000, -17.000000)" fill-rule="nonzero" fill="#D70916">
            <g id="exclamation-triangle" transform="translate(65.000000, 17.000000)">
                <path d="M212.765037,164.383824 C219.660735,176.336416 211.005061,191.277344 197.232345,191.277344 L17.9524248,191.277344 C4.15318404,191.277344 -4.46251537,176.313254 2.41973312,164.383824 L92.0608142,8.96052166 C98.9598742,-2.99767462 116.239466,-2.97600648 123.126198,8.96052166 L212.765037,164.383824 Z M107.593506,132.250351 C98.1024884,132.250351 90.408432,139.944407 90.408432,149.435425 C90.408432,158.926442 98.1024884,166.620499 107.593506,166.620499 C117.084523,166.620499 124.77858,158.926442 124.77858,149.435425 C124.77858,139.944407 117.084523,132.250351 107.593506,132.250351 Z M91.2777726,70.4789766 L94.0490525,121.287021 C94.1786878,123.664539 96.1445108,125.525757 98.5253907,125.525757 L116.661621,125.525757 C119.042501,125.525757 121.008324,123.664539 121.137959,121.287021 L123.909239,70.4789766 C124.049335,67.9109288 122.004685,65.7515869 119.432901,65.7515869 L95.7537372,65.7515869 C93.1819535,65.7515869 91.1376769,67.9109288 91.2777726,70.4789766 L91.2777726,70.4789766 Z" id="Shape"></path>
            </g>
        </g>
    </g>
</svg>