<?xml version="1.0" encoding="UTF-8"?>
<svg width="245px" height="245px" viewBox="0 0 245 245" version="1.1" xmlns="http://www.w3.org/2000/svg" xmlns:xlink="http://www.w3.org/1999/xlink">
    <!-- Generator: Sketch 45.2 (43514) - http://www.bohemiancoding.com/sketch -->
    <title>exclamation-circle</title>
    <desc>Created with Sketch.</desc>
    <defs></defs>
    <g id="Shared" stroke="none" stroke-width="1" fill="none" fill-rule="evenodd">
        <g id="Artboard" transform="translate(-144.000000, -40.000000)" fill-rule="nonzero" fill="#FD8024">
            <g id="exclamation-circle" transform="translate(144.000000, 40.000000)">
                <path d="M244.226563,122.113281 C244.226563,189.569544 189.549848,244.226563 122.113281,244.226563 C54.6767141,244.226563 0,189.569544 0,122.113281 C0,54.6964098 54.6767141,0 122.113281,0 C189.549848,0 244.226563,54.6964098 244.226563,122.113281 Z M122.113281,146.732894 C109.604056,146.732894 99.4632371,156.873713 99.4632371,169.382939 C99.4632371,181.892164 109.604056,192.032983 122.113281,192.032983 C134.622507,192.032983 144.763325,181.892164 144.763325,169.382939 C144.763325,156.873713 134.622507,146.732894 122.113281,146.732894 Z M100.609034,65.3178033 L104.2616,132.283151 C104.43246,135.416735 107.023428,137.869834 110.161444,137.869834 L134.065119,137.869834 C137.203135,137.869834 139.794103,135.416735 139.964963,132.283151 L143.617529,65.3178033 C143.802176,61.9330989 141.107313,59.0870716 137.717684,59.0870716 L106.508386,59.0870716 C103.118757,59.0870716 100.424387,61.9330989 100.609034,65.3178033 L100.609034,65.3178033 Z" id="Shape"></path>
            </g>
        </g>
    </g>
</svg>