<?xml version="1.0" encoding="UTF-8"?>
<svg width="92px" height="148px" viewBox="0 0 92 148" version="1.1" xmlns="http://www.w3.org/2000/svg" xmlns:xlink="http://www.w3.org/1999/xlink">
    <!-- Generator: Sketch 45.2 (43514) - http://www.bohemiancoding.com/sketch -->
    <title>plug</title>
    <desc>Created with Sketch.</desc>
    <defs></defs>
    <g id="Shared" stroke="none" stroke-width="1" fill="none" fill-rule="evenodd">
        <g id="Artboard" transform="translate(-47.000000, -4.000000)" fill-rule="nonzero" fill="#FFFFFF">
            <g id="plug" transform="translate(47.000000, 4.000000)">
                <path d="M61.146959,41.5789507 L61.146959,9.23976682 C61.146959,4.13681685 64.5690391,0 68.7903289,0 C73.0116188,0 76.4336988,4.13681685 76.4336988,9.23976682 L76.4336988,41.5789507 L61.146959,41.5789507 Z M87.8987536,46.1988341 L3.82168494,46.1988341 C1.71092058,46.1988341 0,48.2670981 0,50.8187175 L0,60.0584843 C0,62.6101037 1.71092058,64.6783677 3.82168494,64.6783677 L7.64336988,64.6783677 L7.64336988,73.9181345 C7.64336988,96.268553 20.7730073,114.911226 38.2168494,119.191837 L38.2168494,147.836269 L53.5035892,147.836269 L53.5035892,119.191837 C70.9474312,114.911226 84.0770687,96.268553 84.0770687,73.9181345 L84.0770687,64.6783677 L87.8987536,64.6783677 C90.009518,64.6783677 91.7204386,62.6101037 91.7204386,60.0584843 L91.7204386,50.8187175 C91.7204386,48.2670981 90.009518,46.1988341 87.8987536,46.1988341 Z M30.5734795,41.5789507 L30.5734795,9.23976682 C30.5734795,4.13681685 27.1513995,0 22.9301096,0 C18.7088198,0 15.2867398,4.13681685 15.2867398,9.23976682 L15.2867398,41.5789507 L30.5734795,41.5789507 Z" id="Shape"></path>
            </g>
        </g>
    </g>
</svg>