<?xml version="1.0" encoding="UTF-8"?>
<svg width="137px" height="96px" viewBox="0 0 137 96" version="1.1" xmlns="http://www.w3.org/2000/svg" xmlns:xlink="http://www.w3.org/1999/xlink">
    <!-- Generator: Sketch 45.2 (43514) - http://www.bohemiancoding.com/sketch -->
    <title>Shape</title>
    <desc>Created with Sketch.</desc>
    <defs></defs>
    <g id="Shared" stroke="none" stroke-width="1" fill="none" fill-rule="evenodd">
        <g id="Artboard" transform="translate(-34.000000, -29.000000)" fill-rule="nonzero" fill="#FFFFFF">
            <g id="user-plus" transform="translate(34.000000, 29.000000)">
                <path d="M47.6602055,0 C64.1114871,0 77.4478339,13.3363468 77.4478339,29.7876284 C77.4478339,46.2389101 64.1114871,59.5752569 47.6602055,59.5752569 C31.2089238,59.5752569 17.8725771,46.2389101 17.8725771,29.7876284 C17.8725771,13.3363468 31.2089238,0 47.6602055,0 Z M81.7825722,62.1482696 L68.5060134,58.8290768 C54.5575308,68.8619756 37.650073,66.6230097 26.8143976,58.8290768 L13.5378388,62.1482696 C5.58156326,64.1374449 0,71.2860502 0,79.4872226 L0,86.3841224 C0,91.3195069 4.00090404,95.320411 8.93628853,95.320411 L86.3841224,95.320411 C91.3195069,95.320411 95.320411,91.3195069 95.320411,86.3841224 L95.320411,79.4872226 C95.320411,71.2860502 89.7388477,64.1374449 81.7825722,62.1482696 L81.7825722,62.1482696 Z M133.61879,41.0407561 L118.961362,41.0407561 L118.961362,26.383328 C118.961362,24.9733094 117.818156,23.8301027 116.408137,23.8301027 L108.275689,23.8301027 C106.86567,23.8301027 105.722464,24.9733094 105.722464,26.383328 L105.722038,41.0403306 L91.0650355,41.0407561 C89.6550168,41.0407561 88.5118102,42.1839628 88.5118102,43.5939814 L88.5118102,51.7264295 C88.5118102,53.1364482 89.6550168,54.2796548 91.0650355,54.2796548 L105.722038,54.2800804 L105.722464,68.9370829 C105.722464,70.3471016 106.86567,71.4903082 108.275689,71.4903082 L116.408137,71.4903082 C117.818156,71.4903082 118.961362,70.3471016 118.961362,68.9370829 L118.961788,54.2800804 L133.61879,54.2796548 C135.028809,54.2796548 136.172016,53.1364482 136.172016,51.7264295 L136.172016,43.5939814 C136.172016,42.1839628 135.028809,41.0407561 133.61879,41.0407561 Z" id="Shape"></path>
            </g>
        </g>
    </g>
</svg>